<?xml version="1.0" standalone="no"?>
<!DOCTYPE svg PUBLIC "-//W3C//DTD SVG 20010904//EN"
 "http://www.w3.org/TR/2001/REC-SVG-20010904/DTD/svg10.dtd">
<svg version="1.0" xmlns="http://www.w3.org/2000/svg"
 width="350.000000pt" height="350.000000pt" viewBox="0 0 350.000000 350.000000"
 preserveAspectRatio="xMidYMid meet">
<metadata>
Created by potrace 1.11, written by Peter Selinger 2001-2013
</metadata>
<g transform="translate(0.000000,350.000000) scale(0.100000,-0.100000)"
fill="#000000" stroke="none">
<path d="M1520 2547 c0 -8 -10 -26 -21 -41 -20 -26 -22 -26 -40 -10 -11 9 -19
25 -19 36 0 10 -7 18 -15 18 -22 0 -18 -27 9 -63 17 -22 26 -48 28 -82 4 -64
22 -65 26 -1 2 33 11 59 28 81 25 34 31 60 14 70 -5 3 -10 0 -10 -8z"/>
<path d="M2165 2552 c-10 -10 -5 -202 5 -202 10 0 11 3 15 60 1 19 3 39 4 44
0 5 19 -16 42 -48 22 -31 45 -54 50 -50 6 3 4 15 -5 30 -51 79 -49 71 -22 78
33 8 46 51 22 74 -15 15 -99 25 -111 14z m95 -42 c0 -16 -7 -20 -33 -20 -38 0
-48 6 -40 26 3 8 19 14 39 14 27 0 34 -4 34 -20z"/>
<path d="M290 2469 c0 -104 7 -117 65 -117 57 0 64 13 63 122 0 57 -4 76 -14
76 -11 0 -14 -20 -14 -86 0 -64 -3 -85 -12 -82 -8 3 -13 23 -13 51 -1 63 -19
60 -23 -4 -2 -33 -7 -49 -15 -46 -8 2 -12 31 -12 85 1 60 -3 82 -12 82 -10 0
-13 -22 -13 -81z"/>
<path d="M875 2542 c-10 -10 -5 -22 9 -22 15 0 23 -50 18 -112 -2 -27 -7 -35
-18 -31 -8 3 -14 -1 -14 -11 0 -12 10 -16 45 -16 45 0 58 12 30 27 -10 6 -15
31 -17 87 -3 74 -4 79 -26 81 -12 1 -24 -1 -27 -3z"/>
<path d="M1139 2533 c-1 -5 -1 -17 0 -29 2 -17 -3 -20 -34 -16 -19 2 -42 -1
-50 -8 -22 -18 -20 -93 3 -113 21 -19 58 -22 68 -6 4 8 9 7 15 -2 15 -24 21
-1 21 73 0 101 -1 108 -12 108 -5 0 -10 -3 -11 -7z m-17 -80 c21 -19 23 -44 6
-61 -16 -16 -58 -15 -59 1 0 6 -2 21 -4 32 -4 21 11 45 28 45 6 0 19 -7 29
-17z"/>
<path d="M2567 2533 c-4 -3 -7 -13 -7 -21 0 -8 -8 -21 -17 -28 -17 -13 -17
-13 0 -14 14 0 17 -9 17 -50 0 -38 4 -52 19 -60 28 -14 47 -13 65 6 21 20 11
37 -13 22 -28 -17 -50 -4 -47 29 2 38 13 53 37 53 29 0 23 18 -8 22 -16 2 -27
10 -29 21 -3 23 -9 29 -17 20z"/>
<path d="M2722 2463 c0 -43 2 -86 4 -96 9 -30 24 -7 24 37 0 37 4 45 27 55 33
15 40 5 41 -56 1 -46 7 -61 18 -50 8 8 6 115 -2 129 -4 6 -24 8 -45 5 -38 -5
-39 -4 -39 24 0 18 -5 29 -14 29 -10 0 -13 -19 -14 -77z"/>
<path d="M502 2482 c-29 -19 -31 -91 -3 -116 18 -16 73 -18 88 -3 14 14 20 78
9 98 -14 30 -64 41 -94 21z m66 -25 c6 -7 10 -26 9 -42 -2 -25 -7 -31 -31 -33
-16 -2 -32 2 -36 9 -8 12 -4 54 6 71 8 12 40 9 52 -5z"/>
<path d="M3153 2485 c-24 -10 -33 -11 -36 -2 -9 26 -17 -3 -18 -62 -1 -84 16
-104 23 -27 3 29 11 45 31 60 27 20 27 20 41 0 17 -23 30 -14 22 14 -9 28 -27
32 -63 17z"/>
<path d="M669 2463 c-4 -96 13 -124 61 -106 18 7 32 8 36 2 13 -22 24 7 24 67
0 48 -3 65 -12 61 -8 -2 -13 -20 -13 -45 1 -32 -4 -43 -21 -53 -38 -20 -54 -5
-54 51 0 51 -19 72 -21 23z"/>
<path d="M1621 2481 c-8 -5 -16 -27 -18 -49 -3 -32 1 -46 17 -62 44 -44 110
-11 106 54 -2 19 -9 42 -16 51 -14 16 -67 20 -89 6z m67 -20 c8 -5 12 -22 10
-42 -3 -30 -6 -34 -33 -34 -27 0 -30 4 -33 34 -3 32 9 51 33 51 6 0 16 -4 23
-9z"/>
<path d="M1790 2431 c0 -73 16 -91 63 -73 21 8 33 9 35 2 2 -6 8 -8 13 -4 15
9 11 136 -3 131 -7 -2 -13 -19 -13 -39 0 -42 -21 -70 -49 -66 -18 3 -21 11
-24 56 -4 71 -22 66 -22 -7z"/>
<path d="M2375 2480 c3 -5 17 -10 29 -10 13 0 29 -7 36 -15 11 -13 7 -15 -27
-15 -44 0 -63 -14 -63 -47 0 -29 26 -42 78 -40 l42 1 0 52 c0 77 -5 84 -57 84
-27 0 -42 -4 -38 -10z m64 -69 c28 -2 -11 -31 -41 -31 -25 0 -27 2 -18 19 5
11 18 18 27 16 10 -2 24 -4 32 -4z"/>
<path d="M2928 2479 c-25 -14 -25 -90 0 -112 22 -21 106 -24 100 -4 -5 13 -9
14 -59 16 -45 2 -31 26 16 26 29 0 39 5 46 21 17 48 -51 84 -103 53z m66 -15
c30 -12 18 -34 -19 -34 -24 0 -35 5 -35 14 0 21 27 31 54 20z"/>
<path d="M668 2205 c-2 -2 -64 -7 -138 -10 -73 -3 -151 -10 -172 -16 l-40 -10
6 -147 c4 -81 9 -176 11 -212 3 -36 7 -105 10 -155 4 -83 8 -125 20 -230 4
-36 8 -97 20 -289 3 -56 5 -61 37 -77 18 -9 36 -15 40 -12 5 2 8 0 8 -6 0 -5
9 -8 20 -6 23 4 36 -10 19 -21 -7 -4 -9 -3 -5 4 7 12 -19 10 -31 -2 -4 -4 -1
-6 7 -4 8 2 14 -3 13 -9 -2 -7 2 -13 7 -13 6 0 10 5 10 10 0 6 7 10 16 10 9 0
12 5 8 13 -6 9 -4 9 8 -1 8 -7 24 -10 34 -6 16 5 16 4 4 -5 -8 -6 -13 -11 -10
-12 3 0 15 -2 28 -5 17 -3 21 -1 16 8 -6 10 -5 10 8 1 8 -7 19 -9 23 -5 5 4 5
2 1 -5 -3 -6 -2 -14 4 -18 5 -3 10 -2 10 4 0 5 8 9 18 8 10 0 19 -7 19 -14 0
-10 -3 -10 -16 0 -12 9 -13 9 -7 0 4 -7 16 -17 26 -23 16 -9 18 -7 15 11 -4
17 -2 19 10 9 12 -10 15 -10 15 1 0 11 2 11 9 0 8 -12 12 -12 25 -2 13 11 20
11 40 -2 13 -9 27 -13 30 -9 4 3 -3 11 -15 17 -19 11 -18 12 14 11 19 -1 34
-3 32 -6 -2 -4 5 -12 17 -19 15 -9 18 -10 12 0 -5 9 -1 11 14 7 18 -5 20 -3
12 12 -9 17 -4 30 12 30 5 0 7 -4 4 -9 -4 -5 4 -7 16 -3 21 5 21 6 3 12 -18 6
-18 8 4 19 12 7 20 15 17 18 -3 3 -12 1 -19 -5 -11 -9 -16 -7 -25 13 -10 21
-8 26 11 36 21 12 21 12 2 20 -19 8 -19 9 -1 6 27 -3 31 -24 7 -32 -12 -3 -18
-12 -15 -20 3 -8 12 -11 20 -8 8 3 11 9 8 14 -3 5 -1 9 5 9 5 0 14 -8 20 -17
9 -16 10 -16 8 4 0 12 -5 19 -9 17 -4 -3 -8 3 -8 14 0 10 -9 28 -20 40 -23 24
-27 40 -6 23 10 -8 16 -9 21 -1 3 5 1 10 -6 10 -9 0 -9 3 0 14 7 9 8 17 2 20
-5 3 -11 1 -13 -6 -3 -7 -7 -5 -11 6 -4 10 -3 15 3 11 6 -3 10 -2 10 4 0 5 -3
11 -7 14 -5 2 -3 2 4 1 7 -2 15 1 18 6 4 6 1 10 -5 10 -6 0 -9 4 -5 9 3 5 -3
11 -12 13 -15 3 -14 5 5 10 12 3 20 3 18 -1 -3 -4 -1 -13 3 -20 7 -11 13 -11
27 -1 14 8 15 10 2 6 -23 -7 -30 4 -12 21 8 8 12 19 9 24 -3 5 -1 18 6 30 8
15 8 19 0 15 -6 -4 -11 -2 -11 3 0 6 -4 11 -8 11 -5 0 -8 -13 -8 -30 0 -16 4
-30 8 -30 5 0 6 -5 2 -11 -4 -8 -9 -7 -15 2 -7 12 -9 12 -9 0 0 -10 -3 -11
-14 -2 -14 12 -14 46 -1 60 4 3 4 -7 1 -22 -3 -19 -1 -27 7 -24 14 4 16 37 3
55 -6 8 -5 17 3 25 10 9 11 8 6 -8 -5 -14 -4 -16 3 -7 5 8 13 13 18 12 5 -1
10 4 12 12 3 10 2 10 -6 -1 -6 -8 -12 -9 -16 -3 -3 6 6 20 21 32 26 20 27 20
3 9 -14 -7 -27 -15 -30 -18 -3 -3 -12 -12 -21 -18 -13 -10 -16 -10 -16 2 0 7
5 13 10 12 5 -1 12 4 14 11 3 8 -1 10 -14 5 -13 -4 -11 0 7 16 22 19 23 21 5
19 -14 -2 -20 4 -21 24 -2 15 1 30 7 33 15 10 11 23 -8 28 -10 3 -6 4 9 4 26
-1 27 -2 13 -24 -18 -27 -19 -37 -2 -27 8 5 7 2 -2 -9 -8 -10 -11 -20 -7 -24
3 -3 6 -1 6 7 0 10 3 10 15 0 12 -10 13 -16 4 -27 -10 -11 -9 -12 5 -7 18 7
22 34 5 34 -5 0 -8 4 -4 9 3 5 1 12 -5 16 -5 3 -10 11 -10 18 0 8 3 8 12 -1 7
-7 16 -12 22 -12 5 0 1 7 -10 16 -13 11 -15 17 -6 20 6 3 12 10 12 15 0 6 -4
7 -10 4 -5 -3 -10 1 -10 9 0 8 8 20 18 25 14 9 15 10 1 11 -16 0 -23 30 -7 30
4 0 8 10 7 23 l0 22 -9 -21 c-5 -12 -13 -25 -19 -29 -6 -3 -9 -11 -6 -16 3 -5
-2 -6 -12 -3 -15 5 -15 4 -3 -4 8 -6 18 -8 24 -5 5 4 7 -1 3 -11 -4 -10 -7
-20 -7 -22 0 -2 -4 -4 -10 -4 -5 0 -6 7 -3 17 4 10 2 14 -4 10 -6 -4 -14 0
-17 8 -3 9 1 18 9 21 8 4 12 10 9 15 -3 5 -10 6 -16 3 -7 -4 -8 -2 -4 5 6 9
11 9 22 0 11 -9 14 -8 14 4 0 9 7 23 16 32 17 17 13 27 -12 31 -11 2 -12 -1
-4 -10 7 -10 6 -17 -6 -27 -27 -22 -36 9 -11 43 20 27 35 39 22 18 -3 -5 -1
-10 5 -10 7 0 9 8 5 20 -4 11 -2 20 4 20 6 0 11 5 11 11 0 8 -5 8 -15 -1 -20
-16 -19 0 1 28 12 18 13 26 4 37 -9 11 -9 19 -2 28 8 9 5 19 -8 37 -11 14 -20
20 -20 13 0 -6 5 -15 10 -18 6 -4 7 -12 3 -18 -10 -17 -11 -47 -1 -41 12 8 4
-32 -10 -48 -8 -10 -8 -18 -1 -25 8 -8 7 -13 -1 -18 -20 -12 -31 18 -14 37 18
19 14 54 -5 50 -7 -1 -10 2 -6 8 3 6 11 8 16 5 5 -4 9 -1 9 4 0 10 -13 15 -31
13 -4 -1 -5 8 -2 18 3 11 9 20 14 20 5 0 9 5 9 10 0 5 -3 9 -7 9 -19 -3 -22 3
-12 28 8 21 7 28 -6 35 -8 5 -13 13 -10 19 4 5 -2 6 -11 2 -13 -5 -16 -3 -11
10 3 9 1 19 -5 23 -7 4 -8 3 -4 -4 15 -25 -13 -10 -54 28 -24 22 -45 40 -47
40 -9 0 -68 64 -65 71 1 5 -1 8 -5 7 -5 -1 -18 3 -29 10 -12 6 -23 9 -26 7z
m-43 -352 c-2 -8 4 -13 17 -13 18 0 19 2 7 18 -12 15 -12 16 2 5 9 -7 19 -9
23 -5 4 4 7 3 6 -3 -1 -5 -1 -12 0 -15 5 -13 9 -50 15 -124 3 -45 7 -103 10
-131 12 -146 17 -217 19 -283 l3 -72 -49 1 c-44 2 -48 4 -48 26 0 13 4 22 8
19 4 -2 8 6 8 19 0 13 -4 21 -8 19 -5 -3 -6 -10 -3 -15 4 -5 0 -12 -9 -15 -8
-3 -12 -12 -10 -19 3 -7 0 -16 -6 -20 -15 -9 -33 16 -20 29 4 4 6 15 3 22 -3
8 0 14 7 14 6 0 8 -4 5 -10 -3 -5 -1 -10 4 -10 19 0 5 40 -15 43 -5 1 -7 8 -6
16 2 8 -1 10 -10 5 -10 -6 -10 -4 1 9 12 15 11 20 -3 35 -9 10 -16 25 -15 33
0 8 3 6 8 -5 6 -17 8 -17 14 -4 3 10 -4 26 -20 43 l-27 26 46 -20 c33 -14 45
-16 45 -6 0 8 -7 11 -15 7 -10 -3 -13 -1 -9 5 4 6 0 18 -8 26 -18 18 -20 31
-3 21 6 -4 8 -3 5 3 -4 6 1 14 10 18 16 6 15 8 -7 26 -14 12 -19 18 -13 14 9
-4 11 -1 7 10 -4 9 -9 14 -12 11 -8 -9 -42 14 -41 27 0 9 2 8 6 -1 4 -10 8
-10 19 -1 11 9 14 9 11 -2 -2 -8 -2 -10 1 -6 2 4 11 2 20 -5 10 -7 14 -8 10
-4 -4 5 0 14 9 21 13 9 13 14 3 20 -8 5 -11 4 -6 -3 4 -7 -1 -10 -14 -9 -11 1
-20 5 -20 9 0 4 -8 5 -17 2 -15 -5 -16 -4 -3 5 13 9 13 11 0 12 -8 1 -19 1
-24 0 -5 -1 -3 5 4 14 7 9 19 14 27 11 7 -3 13 -1 13 5 0 6 6 7 13 3 6 -4 2 4
-11 18 -12 13 -19 28 -15 31 5 6 -9 11 -28 9 -7 -1 -5 36 3 43 3 3 11 -2 19
-12 9 -11 10 -14 2 -9 -7 4 -13 2 -13 -3 0 -6 4 -11 8 -11 18 0 21 14 7 41
-19 37 -19 52 1 17 16 -31 49 -28 41 3 -3 11 -1 19 5 19 5 0 7 4 3 10 -3 5
-12 7 -20 4 -8 -4 -12 -10 -9 -15 3 -5 0 -9 -5 -9 -16 0 -13 20 4 26 8 4 12
10 9 16 -3 5 3 4 15 -4 12 -7 19 -19 16 -25z m-82 6 c-8 -8 -13 -7 -18 2 -5 8
-4 10 3 5 7 -4 12 -2 12 5 0 7 3 9 7 6 4 -4 2 -12 -4 -18z m57 -33 c0 -3 -4
-8 -10 -11 -5 -3 -10 -1 -10 4 0 6 5 11 10 11 6 0 10 -2 10 -4z m351 -19 c-10
-9 -11 -8 -5 6 3 10 9 15 12 12 3 -3 0 -11 -7 -18z m-382 -86 c9 -6 6 -8 -13
-8 -14 0 -23 3 -20 8 7 11 15 11 33 0z m1 -147 c0 -8 4 -13 8 -10 4 2 14 1 22
-5 14 -8 7 -11 -16 -8 -4 0 -11 -5 -15 -13 -9 -14 -11 -10 -13 34 -1 15 2 24
6 22 4 -3 8 -12 8 -20z m13 -75 l22 -21 -22 11 c-12 6 -25 16 -28 21 -11 17 5
11 28 -11z m-9 -175 c3 -8 2 -12 -4 -9 -6 3 -10 10 -10 16 0 14 7 11 14 -7z
m346 -264 c8 -5 11 -10 5 -10 -5 0 -17 5 -25 10 -8 5 -10 10 -5 10 6 0 17 -5
25 -10z m-30 -22 c0 -4 -4 -8 -9 -8 -6 0 -12 4 -15 8 -3 5 1 9 9 9 8 0 15 -4
15 -9z m57 -13 c5 -4 3 -5 -3 -2 -11 7 -29 -19 -25 -36 1 -5 -3 -6 -8 -3 -5 4
-11 1 -13 -6 -3 -7 -7 -3 -10 9 -4 15 -2 20 8 16 9 -3 12 1 10 14 -3 14 1 19
15 18 10 -1 22 -5 26 -10z"/>
<path d="M656 1832 c-2 -4 -1 -14 3 -21 6 -10 10 -9 14 3 6 16 -8 32 -17 18z"/>
<path d="M620 1820 c0 -5 5 -10 11 -10 5 0 7 -5 3 -12 -4 -7 -3 -8 5 -4 9 6 9
11 0 22 -14 17 -19 18 -19 4z"/>
<path d="M610 1791 c0 -7 -5 -9 -12 -5 -7 5 -8 3 -3 -5 5 -9 10 -10 18 -2 6 6
8 14 4 18 -4 3 -7 1 -7 -6z"/>
<path d="M573 1756 c0 -8 8 -11 20 -8 14 4 16 7 5 13 -19 12 -25 11 -25 -5z"/>
<path d="M568 1674 c9 -7 19 -8 20 -3 2 5 8 7 13 3 5 -3 9 -1 9 4 0 5 -13 9
-30 9 -26 0 -27 -2 -12 -13z"/>
<path d="M615 1600 c-3 -5 -1 -10 4 -10 6 0 11 5 11 10 0 6 -2 10 -4 10 -3 0
-8 -4 -11 -10z"/>
<path d="M630 1500 c0 -5 5 -10 10 -10 6 0 10 5 10 10 0 6 -4 10 -10 10 -5 0
-10 -4 -10 -10z"/>
<path d="M587 1449 c8 -8 9 -18 2 -31 -7 -14 -6 -20 6 -24 10 -4 12 -10 6 -18
-7 -8 -5 -12 8 -12 11 0 17 7 16 21 -1 13 -8 19 -18 17 -11 -2 -15 2 -11 13 3
8 10 13 14 10 5 -3 12 0 16 6 4 8 3 9 -4 5 -7 -4 -12 -3 -12 2 0 6 -8 13 -17
17 -14 5 -15 4 -6 -6z"/>
<path d="M594 1339 c-3 -5 2 -6 10 -3 10 4 16 1 16 -7 0 -12 2 -12 9 0 5 8 14
10 21 6 8 -5 11 -4 7 2 -8 13 -55 14 -63 2z"/>
<path d="M595 1260 c3 -5 8 -10 11 -10 2 0 4 5 4 10 0 6 -5 10 -11 10 -5 0 -7
-4 -4 -10z"/>
<path d="M1447 2203 c-2 -1 -42 -4 -91 -8 -175 -11 -186 -15 -222 -68 -38 -55
-97 -131 -106 -135 -11 -5 -10 -56 2 -87 8 -20 7 -27 -5 -31 -8 -4 -15 -10
-15 -16 0 -5 4 -7 9 -4 5 3 11 -8 13 -25 4 -24 2 -29 -11 -24 -14 5 -13 3 1
-11 16 -16 16 -18 0 -31 -9 -8 -11 -12 -4 -8 8 4 12 -1 12 -15 0 -14 -4 -19
-12 -15 -7 4 -5 0 4 -8 20 -16 30 -84 14 -91 -7 -3 -8 -7 -1 -13 12 -10 13
-73 1 -92 -6 -10 -6 -12 3 -7 8 5 11 -2 11 -26 -1 -18 1 -53 5 -78 3 -25 7
-85 9 -135 3 -93 21 -170 43 -193 7 -7 13 -19 13 -25 0 -7 4 -6 10 3 5 8 10
11 10 7 0 -4 9 -3 19 3 14 7 22 7 26 0 5 -8 11 -8 20 0 7 6 20 7 29 4 14 -5
14 -9 4 -22 -11 -13 -10 -14 8 -8 15 4 21 2 21 -9 0 -18 -2 -18 -27 -5 -13 7
-21 7 -26 -1 -9 -15 17 -31 36 -23 8 4 20 7 26 7 16 1 12 47 -5 47 -23 0 -8 8
27 15 24 4 34 1 38 -10 4 -8 14 -14 23 -13 9 2 15 -3 13 -10 -1 -8 2 -11 7 -8
10 7 9 25 -3 44 -6 10 -3 12 10 10 20 -3 26 19 11 39 -11 15 -6 63 8 82 7 11
7 13 -2 7 -7 -4 -13 -2 -13 3 0 6 6 11 13 11 8 0 8 3 -2 9 -8 5 -16 18 -18 29
-2 16 2 20 22 18 20 -3 23 0 15 15 -6 11 -6 20 -1 23 5 4 12 0 15 -6 5 -11 7
-11 12 0 3 6 9 10 13 8 4 -3 8 1 8 8 0 7 -6 13 -13 13 -7 0 -11 -4 -8 -9 3 -4
0 -8 -6 -8 -7 0 -9 7 -6 16 4 9 3 22 -1 28 -5 7 -1 5 7 -4 8 -8 23 -16 33 -16
35 -3 38 -4 31 -15 -4 -8 -9 -7 -15 2 -5 8 -9 9 -9 3 0 -15 25 -36 33 -27 4 3
7 0 7 -7 0 -7 3 -10 6 -7 4 4 1 13 -6 22 -10 12 -10 15 1 15 8 0 4 9 -11 21
l-25 20 25 -12 c14 -7 32 -12 40 -10 10 2 8 -3 -5 -13 -11 -9 -14 -15 -7 -14
19 4 28 -16 42 -92 19 -99 29 -128 39 -112 3 5 17 13 29 17 21 6 23 4 18 -17
-3 -12 -3 -17 0 -10 3 6 15 12 25 12 13 0 18 4 13 12 -4 6 -3 8 4 4 5 -3 13 0
15 6 4 10 6 10 6 0 1 -8 6 -10 14 -6 8 5 7 2 -2 -9 -8 -10 -11 -21 -7 -24 4
-4 10 -3 14 3 4 7 20 10 35 8 22 -2 26 0 18 9 -6 8 -6 18 -1 27 7 11 10 12 10
2 0 -7 5 -10 10 -7 6 4 8 10 5 15 -3 4 2 13 10 20 8 7 15 17 15 23 0 5 -9 2
-20 -8 -11 -10 -20 -13 -20 -7 0 7 4 12 10 12 5 0 7 7 4 15 -4 8 1 17 10 21 9
3 16 10 16 16 0 5 -5 6 -10 3 -6 -3 -11 -1 -11 4 -1 6 -2 16 -3 21 0 6 -8 15
-16 20 -11 7 -11 10 -2 10 7 0 11 4 8 9 -5 8 2 8 33 2 2 -1 -2 -8 -9 -16 -10
-12 -10 -15 1 -15 12 0 12 -2 1 -9 -11 -7 -11 -9 1 -14 12 -4 15 0 12 15 -3
12 1 28 8 37 9 12 9 13 0 7 -14 -8 -16 0 -15 48 1 32 -11 27 -13 -7 -1 -16 -8
-22 -25 -23 -21 -1 -22 0 -7 11 21 15 22 29 1 21 -9 -3 -12 -2 -9 5 4 6 13 8
21 5 10 -4 14 2 14 20 0 14 4 22 10 19 6 -3 10 -1 10 4 0 6 -4 11 -9 11 -5 0
-8 11 -8 25 0 15 4 22 11 18 6 -3 3 3 -7 14 -14 16 -15 22 -5 26 7 2 5 3 -4 2
-10 -2 -18 1 -18 7 0 5 -4 7 -8 4 -4 -2 -14 -1 -21 3 -9 6 -10 11 -2 15 6 4
11 2 11 -4 0 -6 5 -8 11 -4 8 4 3 12 -12 21 -19 11 -19 13 -4 9 17 -5 16 -3
-5 15 -22 18 -23 19 -3 9 25 -12 46 -44 36 -54 -3 -3 -1 -6 6 -6 8 0 11 6 7
16 -3 8 -2 12 3 9 5 -3 13 -1 16 5 4 6 3 10 -2 9 -21 -4 -34 2 -27 13 4 7 3 8
-4 4 -7 -4 -12 -3 -12 3 0 5 8 15 18 20 10 6 12 11 4 11 -7 0 -10 5 -7 10 4 6
10 8 15 5 5 -3 12 -1 15 5 4 6 1 9 -7 8 -7 -2 -12 4 -10 14 1 9 -7 22 -18 28
-17 9 -19 14 -9 26 10 12 9 17 -5 27 -17 12 -13 52 4 42 5 -3 7 3 6 12 -2 10
1 21 6 24 5 3 3 9 -5 12 -9 3 -21 -2 -29 -11 -7 -9 -8 -13 -1 -9 15 9 11 -19
-5 -35 -15 -15 -27 -4 -16 14 12 18 16 50 6 44 -5 -3 -9 0 -9 7 0 7 -4 20 -8
30 -4 10 -3 17 5 17 6 0 8 5 5 10 -4 6 -10 8 -14 6 -9 -6 -8 25 2 41 4 6 3 14
-2 17 -5 4 -12 0 -14 -6 -3 -7 -4 2 -2 19 2 18 -1 35 -6 39 -6 3 -5 12 3 22
10 12 10 14 1 8 -7 -4 -13 -2 -13 3 0 6 6 11 13 12 7 0 6 3 -4 7 -8 4 -40 33
-69 65 l-54 58 -74 -3 c-40 -2 -74 -4 -75 -5z m-109 -318 c-3 -3 -9 2 -12 12
-6 14 -5 15 5 6 7 -7 10 -15 7 -18z m-33 6 c3 -5 0 -13 -6 -17 -7 -4 -9 -3 -5
4 3 6 -2 13 -11 15 -16 4 -16 5 -1 6 9 0 19 -3 23 -8z m75 -6 c-15 -18 1 -20
19 -2 11 10 13 10 7 0 -4 -7 -3 -13 2 -13 5 0 10 -71 11 -158 l2 -159 -51 11
c-37 7 -49 14 -45 24 4 12 3 12 -9 3 -16 -14 -40 -6 -31 10 4 5 1 9 -4 9 -6 0
-11 -5 -11 -12 0 -6 -3 -9 -6 -6 -3 4 -1 15 4 25 12 22 4 46 -11 36 -7 -4 -6
1 2 10 11 14 11 20 1 32 -13 15 -5 20 27 16 6 -1 15 4 19 10 5 8 3 9 -6 4 -10
-6 -12 -4 -7 8 3 9 2 19 -4 22 -5 4 -8 3 -7 -2 3 -9 -5 -13 -24 -13 -6 0 -3 6
7 14 11 8 25 12 32 9 7 -3 14 0 14 6 3 21 4 26 13 40 6 9 5 12 -2 7 -5 -3 -12
0 -15 6 -6 20 4 48 17 47 25 -3 37 2 30 13 -4 6 -3 8 4 4 6 -3 13 -2 17 4 3 5
9 10 12 10 3 0 0 -7 -7 -15z m-93 -39 c-3 -8 0 -20 8 -26 19 -16 12 -43 -13
-45 -12 -1 -22 2 -22 7 0 4 7 8 16 8 8 0 12 5 9 10 -4 6 -11 7 -17 4 -7 -5 -8
-2 -2 7 9 14 10 19 13 39 0 6 4 10 7 10 3 0 4 -6 1 -14z m494 -87 c11 -5 17
-14 14 -20 -4 -5 -11 -7 -16 -4 -5 4 -9 1 -9 -4 0 -6 -5 -11 -11 -11 -8 0 -7
5 2 16 10 13 10 17 -2 25 -20 12 -2 11 22 -2z m35 -83 c-1 -11 -8 -22 -15 -24
-10 -3 -10 1 -1 19 l11 24 -21 -24 c-16 -18 -18 -26 -8 -32 6 -4 16 -5 22 -2
5 3 6 1 2 -5 -12 -20 -49 5 -37 26 6 11 4 20 -7 29 -16 12 -15 13 1 7 10 -4
17 -3 16 2 -3 20 2 23 21 12 11 -7 18 -21 16 -32z m-563 -51 c-3 -9 -8 -14
-10 -11 -3 3 -2 9 2 15 9 16 15 13 8 -4z m566 -109 c8 -10 9 -16 1 -21 -5 -3
-10 -11 -10 -16 0 -6 4 -8 8 -5 7 4 8 -28 2 -44 -1 -3 -2 -8 -2 -11 1 -3 -5
-6 -12 -6 -14 0 -16 21 -3 33 15 15 6 26 -10 13 -16 -12 -17 -12 -6 1 7 9 8
21 3 29 -9 15 -3 41 10 41 4 0 13 -6 19 -14z m-344 -144 c-3 -3 -11 0 -18 7
-9 10 -8 11 6 5 10 -3 15 -9 12 -12z m-57 -4 c15 -15 -2 -47 -25 -44 -9 2 -23
12 -31 24 -12 18 -11 20 2 18 8 -1 19 -6 23 -11 4 -4 2 -5 -4 -1 -7 4 -13 3
-13 -3 0 -17 15 -20 33 -6 18 13 18 14 0 24 -10 6 -13 11 -7 11 5 0 15 -5 22
-12z m-24 -58 c10 0 16 -3 12 -7 -14 -14 -33 -10 -45 11 -11 17 -11 19 0 9 7
-7 22 -13 33 -13z m-18 -52 c1 -5 2 -9 4 -10 9 -11 4 -71 -7 -79 -11 -9 -18
-7 -11 4 1 1 -4 12 -11 24 -10 19 -9 22 4 17 19 -8 19 3 0 22 -17 18 -20 34
-4 34 5 0 7 5 4 10 -4 6 -11 8 -16 5 -5 -3 -6 1 -3 10 6 13 9 12 23 -7 9 -13
16 -26 17 -30z m9 -125 c12 -27 14 -44 5 -38 -4 3 -15 2 -24 -1 -15 -6 -15 -7
0 -19 15 -10 15 -12 1 -12 -9 0 -18 6 -21 12 -5 14 8 37 20 35 5 -1 10 3 12 9
2 6 -3 8 -12 5 -16 -6 -22 7 -9 19 11 12 20 8 28 -10z m-48 -19 c-3 -3 -12 -4
-19 -1 -8 3 -5 6 6 6 11 1 17 -2 13 -5z m-92 -102 c-3 -3 -11 0 -18 7 -9 10
-8 11 6 5 10 -3 15 -9 12 -12z"/>
<path d="M1355 1860 c-4 -6 -14 -9 -22 -6 -8 3 -11 1 -8 -4 3 -6 0 -10 -7 -11
-7 0 -4 -4 7 -9 13 -5 26 -3 37 7 14 13 18 12 28 -4 9 -15 11 -15 6 -1 -3 9 0
18 7 21 8 2 8 5 -1 11 -7 4 -12 2 -12 -5 0 -9 -3 -9 -14 0 -10 9 -16 9 -21 1z
m15 -4 c0 -2 -8 -10 -17 -17 -16 -13 -17 -12 -4 4 13 16 21 21 21 13z"/>
<path d="M1339 1808 c-6 -21 -5 -37 2 -32 5 3 7 9 4 14 -3 4 1 11 7 13 10 4
10 6 1 6 -7 1 -13 0 -14 -1z"/>
<path d="M1375 1800 c3 -5 8 -10 11 -10 2 0 4 5 4 10 0 6 -5 10 -11 10 -5 0
-7 -4 -4 -10z"/>
<path d="M1270 1700 c0 -5 5 -10 11 -10 5 0 7 5 4 10 -3 6 -8 10 -11 10 -2 0
-4 -4 -4 -10z"/>
<path d="M1307 1696 c-4 -10 -3 -15 3 -11 6 3 10 1 10 -6 0 -7 3 -10 6 -6 3 3
2 13 -4 22 -8 16 -9 16 -15 1z"/>
<path d="M1275 1671 c-3 -5 0 -13 6 -16 5 -4 8 -13 5 -21 -3 -7 -1 -16 5 -19
5 -4 6 -12 3 -18 -4 -7 -3 -8 1 -4 14 12 15 40 3 54 -13 17 4 17 21 1 11 -10
12 -10 7 -1 -11 19 -44 35 -51 24z"/>
<path d="M1783 1695 c0 -8 4 -12 9 -9 5 3 6 10 3 15 -9 13 -12 11 -12 -6z"/>
<path d="M1796 1511 c-4 -5 -2 -12 3 -15 5 -4 12 -2 15 3 4 5 2 12 -3 15 -5 4
-12 2 -15 -3z"/>
<path d="M1356 1261 c-3 -5 2 -15 12 -22 15 -12 16 -12 5 2 -7 9 -10 19 -6 22
3 4 4 7 0 7 -3 0 -8 -4 -11 -9z"/>
<path d="M1369 1208 c-5 -18 -6 -38 -1 -34 7 8 12 36 6 36 -2 0 -4 -1 -5 -2z"/>
<path d="M2796 2203 l-29 -5 6 -131 c4 -73 9 -146 11 -164 3 -18 8 -67 11
-110 3 -43 7 -90 9 -105 2 -16 -2 -28 -8 -28 -7 0 -7 -3 1 -8 11 -7 14 -33 28
-322 9 -176 16 -306 18 -335 3 -35 15 -57 27 -50 5 3 11 2 14 -3 3 -5 19 -7
35 -6 37 2 38 -2 9 -35 -20 -22 -20 -23 -2 -8 11 9 26 17 33 17 7 0 10 4 6 9
-3 5 -1 13 5 16 6 4 10 3 9 -2 -3 -20 2 -27 11 -13 5 8 12 11 16 7 9 -8 1 -18
-18 -21 -7 -1 -22 -7 -33 -14 -18 -10 -18 -11 -2 -12 9 0 17 5 17 11 0 8 5 8
15 -1 8 -7 15 -9 15 -5 0 4 6 3 13 -4 8 -6 23 -9 35 -6 15 3 22 -1 23 -13 0
-14 2 -13 9 3 5 11 9 16 9 11 1 -5 7 -3 14 3 14 11 27 5 27 -11 0 -5 -4 -7 -9
-4 -5 3 -15 -2 -22 -12 -12 -15 -12 -16 1 -6 8 6 23 10 32 9 11 -2 15 2 11 13
-4 10 -2 13 5 8 6 -3 13 -2 17 4 7 12 25 4 25 -11 0 -6 -4 -8 -8 -5 -5 3 -9
-1 -9 -9 0 -10 4 -12 12 -5 7 5 15 7 18 3 4 -3 7 -2 7 3 0 6 -5 15 -12 22 -9
9 -9 12 -1 12 7 0 15 -4 18 -10 3 -5 16 -9 28 -9 17 1 18 2 4 6 -9 2 -15 8
-12 13 3 5 0 12 -6 16 -8 4 -9 3 -5 -4 9 -16 -7 -15 -22 0 -7 7 -12 8 -12 2 0
-5 -11 -10 -25 -10 -14 0 -25 4 -25 8 0 4 5 8 11 8 5 0 8 4 5 8 -3 5 1 9 9 9
8 0 12 -4 10 -7 -3 -4 6 -7 20 -7 16 0 22 4 18 11 -7 11 20 -7 46 -32 7 -7 22
-10 34 -6 20 6 21 5 7 -12 -14 -18 -14 -18 3 -5 9 7 17 10 17 7 0 -4 9 -2 19
4 14 7 21 6 25 -3 3 -6 4 -3 3 7 -1 10 4 21 12 24 8 2 11 0 8 -5 -3 -5 0 -10
8 -10 8 0 15 4 15 9 0 4 -5 8 -11 8 -5 0 -7 4 -4 10 3 6 -1 7 -10 4 -11 -4
-14 -2 -10 9 4 8 -1 21 -9 30 -21 20 -20 27 2 22 12 -2 18 3 18 16 0 12 -4 15
-10 9 -13 -13 -26 -13 -26 1 0 5 5 7 10 4 6 -3 10 1 10 11 0 15 2 15 28 -1
l27 -17 -22 22 c-19 21 -24 22 -39 9 -15 -12 -17 -12 -9 0 6 11 4 13 -10 7
-14 -5 -16 -4 -7 7 7 8 8 18 4 23 -4 4 1 2 11 -5 9 -8 20 -12 22 -9 3 3 -6 11
-20 18 -15 8 -25 22 -25 35 0 28 -15 41 -58 50 -24 5 -40 17 -54 41 -11 19
-22 34 -24 34 -7 0 1 -25 11 -32 6 -5 4 -12 -5 -18 -13 -9 -12 -10 4 -8 10 2
21 -2 23 -9 6 -16 -33 -5 -49 15 -11 13 -11 14 0 8 9 -6 11 -1 8 19 -7 36 2
55 22 48 9 -4 14 -3 11 1 -11 12 -49 15 -46 4 1 -6 -5 -13 -13 -15 -13 -4 -13
-3 0 6 13 10 13 11 0 11 -12 0 -12 2 -2 9 19 12 19 15 0 35 -20 20 -21 25 -8
46 6 10 4 20 -7 32 -12 14 -13 21 -4 32 10 11 8 17 -6 25 -16 10 -16 10 4 8
12 -2 26 -7 30 -12 5 -4 3 -5 -3 -2 -6 3 -11 0 -11 -8 0 -8 5 -11 10 -8 6 4 7
1 2 -7 -5 -9 -4 -11 4 -6 6 4 9 12 6 17 -7 11 7 12 21 2 5 -5 2 -1 -8 8 -9 9
-14 20 -10 24 4 5 1 5 -5 1 -7 -4 -13 -3 -13 3 0 6 -8 8 -17 5 -17 -5 -17 -5
-1 9 10 8 15 17 11 20 -3 4 -1 7 6 7 8 0 11 -7 7 -15 -3 -8 -1 -15 4 -15 11 0
13 11 4 34 -3 9 -10 13 -15 10 -5 -3 -6 2 -2 11 4 13 8 14 14 4 6 -11 13 -8
32 9 21 20 23 29 20 85 -2 34 -4 73 -4 87 1 41 -11 49 -77 51 -34 1 -59 6 -56
10 7 12 -3 11 -27 -1 -12 -7 -19 -7 -19 -1 0 5 -9 8 -20 6 -11 -2 -18 0 -15 5
3 5 1 19 -6 31 -9 18 -7 26 9 49 20 26 20 40 0 40 -5 0 -6 -4 -3 -10 3 -5 1
-10 -4 -10 -6 0 -11 4 -11 9 0 17 20 23 35 11 9 -7 15 -8 20 0 3 5 1 10 -4 10
-6 0 -11 5 -11 10 0 5 5 9 11 7 6 -1 13 3 16 10 3 8 -3 11 -17 8 -11 -2 -18 0
-15 5 8 13 34 6 50 -16 13 -17 14 -17 15 -2 0 9 4 20 10 23 6 4 9 -3 7 -16 -1
-12 4 -24 11 -26 6 -3 12 0 12 7 0 6 -6 8 -12 5 -7 -4 -2 3 11 14 12 12 27 18
32 15 5 -3 9 3 10 13 0 16 1 16 8 -1 9 -22 20 -10 16 17 -2 9 1 15 5 12 5 -3
13 3 19 12 6 10 11 12 11 6 0 -7 5 -13 10 -13 14 0 8 23 -9 36 -9 7 -12 20 -7
38 4 16 3 25 -2 22 -6 -3 -10 0 -9 7 3 84 -12 90 -223 92 -91 1 -178 0 -194
-2z m299 -223 c-3 -5 -12 -10 -18 -10 -7 0 -6 4 3 10 19 12 23 12 15 0z m40 0
c3 -5 1 -10 -4 -10 -6 0 -11 5 -11 10 0 6 2 10 4 10 3 0 8 -4 11 -10z m-129
-13 c-2 -17 -36 -64 -36 -50 0 6 7 16 15 23 8 6 14 15 13 18 -1 11 2 22 6 22
2 0 3 -6 2 -13z m204 -387 c0 -5 -7 -10 -16 -10 -9 0 -12 -5 -8 -12 5 -7 3 -8
-6 -3 -10 6 -9 11 5 22 22 16 25 16 25 3z m-60 -24 c0 -2 -8 -10 -17 -17 -16
-13 -17 -12 -4 4 13 16 21 21 21 13z m-13 -42 c-3 -3 -12 -4 -19 -1 -8 3 -5 6
6 6 11 1 17 -2 13 -5z m1 -149 c-3 -3 -9 2 -12 12 -6 14 -5 15 5 6 7 -7 10
-15 7 -18z m29 -147 c-3 -8 -6 -5 -6 6 -1 11 2 17 5 13 3 -3 4 -12 1 -19z
m190 -277 c9 8 13 8 13 0 0 -6 -6 -11 -12 -12 -10 0 -10 -2 0 -6 9 -3 7 -10
-9 -24 -16 -14 -25 -16 -35 -8 -7 6 -18 8 -24 4 -15 -9 -30 4 -23 21 4 11 9
12 16 5 18 -18 31 -12 16 7 -12 15 -11 15 8 -1 14 -12 23 -15 28 -8 3 6 1 11
-4 11 -6 0 -11 5 -11 12 0 9 3 9 12 0 8 -8 15 -9 25 -1z m-262 -9 c-10 -6 -11
-16 -6 -39 1 -5 7 2 14 15 l13 23 12 -28 c11 -25 11 -26 -2 -10 -11 14 -15 15
-19 4 -3 -9 -19 -13 -44 -11 -57 3 -56 3 -43 19 7 8 16 13 20 10 5 -3 11 1 14
7 3 7 3 2 -1 -12 -5 -22 -4 -23 10 -11 9 7 16 16 15 19 -1 16 3 22 15 22 8 0
8 -3 2 -8z"/>
<path d="M3335 910 c-4 -6 -11 -7 -17 -4 -7 4 -8 2 -4 -5 6 -9 11 -9 22 0 14
11 18 19 10 19 -3 0 -8 -5 -11 -10z"/>
<path d="M2335 2193 c-34 -9 -317 -104 -372 -125 -34 -12 -53 -25 -54 -36 0
-9 -2 -33 -4 -52 -2 -19 -6 -129 -10 -245 -4 -148 -9 -211 -18 -217 -9 -6 -9
-8 1 -8 16 0 15 -25 -2 -39 -10 -8 -16 -9 -19 -1 -3 6 -4 5 -3 -2 2 -7 9 -12
15 -11 12 3 14 -6 11 -57 -1 -19 -7 -38 -13 -42 -9 -6 -9 -8 0 -8 21 0 7 -82
-17 -102 -25 -20 -26 -27 -2 -23 9 1 16 8 14 15 -1 6 2 9 8 5 6 -4 7 -13 2
-23 -5 -9 -8 -35 -7 -57 1 -35 4 -40 25 -41 14 0 34 4 45 9 18 9 19 8 6 -6
-18 -22 -3 -22 21 0 18 16 18 16 12 -3 -7 -17 -6 -18 10 -5 15 13 19 13 27 0
5 -8 7 -19 5 -24 -5 -13 15 -39 32 -42 6 -2 12 2 12 7 0 6 -7 10 -15 10 -10 0
-14 9 -13 25 1 14 6 25 11 25 5 0 7 -6 5 -12 -2 -7 6 -23 19 -35 22 -21 34
-18 13 3 -6 6 -12 20 -15 32 -3 19 -1 21 16 11 23 -12 59 -20 59 -13 0 3 -10
9 -22 15 -23 10 -23 10 -1 5 16 -3 23 2 26 18 4 20 4 20 6 -2 0 -13 5 -21 10
-17 5 3 12 1 16 -4 3 -6 -3 -8 -14 -6 -13 2 -18 -1 -15 -10 3 -7 1 -16 -5 -20
-6 -3 -11 -2 -11 4 0 5 -9 8 -20 6 -11 -2 -20 0 -20 6 0 5 -5 9 -12 9 -6 0 -4
-7 5 -18 20 -22 55 -22 71 0 15 20 27 22 37 6 7 -11 10 -10 21 1 7 8 8 11 2 8
-7 -4 -19 5 -28 18 -19 29 -12 53 10 34 13 -11 18 -6 15 14 -1 5 3 6 9 2 8 -5
8 -11 0 -20 -7 -8 -7 -15 -1 -19 5 -4 13 4 17 16 l6 21 12 -22 c7 -12 16 -18
21 -14 4 4 5 2 1 -4 -4 -7 -2 -13 3 -13 6 0 11 8 11 18 1 15 2 15 17 -3 13
-16 15 -17 10 -2 -4 9 -2 17 3 17 6 0 10 -6 10 -12 0 -9 3 -8 10 2 5 9 5 19 0
25 -6 7 -5 16 3 24 9 11 9 14 0 18 -7 3 -13 13 -13 24 0 10 -4 20 -10 20 -5 1
-14 2 -19 3 -5 0 -13 5 -18 9 -4 5 -2 7 6 5 7 -2 16 3 19 11 3 9 0 11 -8 6 -9
-6 -9 -3 -1 13 16 30 14 36 -6 21 -17 -13 -17 -13 -1 7 11 12 14 24 9 30 -6 5
-4 16 4 27 11 15 17 17 34 7 21 -11 20 -30 0 -30 -6 0 -8 4 -4 9 3 5 1 12 -4
15 -11 7 -9 -13 3 -32 4 -7 5 -16 2 -19 -3 -4 -6 -1 -6 6 0 7 -5 9 -11 5 -8
-4 -7 -9 2 -14 18 -12 39 -1 32 17 -5 12 -3 14 8 8 8 -4 11 -5 7 0 -4 4 -2 15
5 23 7 9 7 13 1 9 -13 -7 -48 26 -37 36 12 12 -13 7 -27 -5 -8 -7 -8 -4 2 6
16 18 44 14 33 -5 -4 -5 -3 -9 2 -10 4 0 16 -2 26 -4 9 -2 15 1 11 6 -3 5 -11
6 -17 3 -7 -4 -9 -4 -5 1 4 4 3 14 -4 22 -6 7 -8 16 -4 20 3 3 6 1 6 -7 0 -10
4 -10 18 1 15 13 16 12 4 -3 -9 -11 -9 -17 -2 -20 6 -2 13 -15 16 -28 17 -101
19 -131 11 -146 -7 -12 -6 -15 2 -10 8 5 10 -5 8 -33 -2 -22 1 -37 6 -34 5 3
7 -5 5 -18 -6 -43 25 -65 87 -64 37 1 52 -2 45 -9 -12 -12 -42 -18 -35 -7 2 4
-2 8 -10 8 -20 0 -19 -13 3 -22 25 -12 43 -14 38 -6 -3 4 4 13 16 20 11 7 17
8 13 2 -3 -6 1 -11 9 -11 8 0 17 -4 20 -9 7 -11 -27 -9 -35 2 -3 5 -9 -1 -12
-12 -4 -18 -3 -19 15 -10 16 8 23 8 29 -2 5 -9 11 -10 21 -2 15 13 53 -8 40
-22 -4 -5 -1 -5 7 0 12 7 10 12 -8 27 -13 10 -27 16 -31 13 -4 -3 -11 2 -14
11 -9 23 -7 31 3 15 6 -10 13 -10 28 -2 11 5 23 7 27 4 3 -3 6 5 7 18 0 22 1
23 9 4 13 -30 12 -34 -8 -30 -10 2 -25 -1 -33 -7 -12 -8 -12 -9 1 -5 8 2 21
-3 28 -12 11 -14 11 -14 6 4 -5 19 -5 19 9 3 8 -10 18 -18 22 -18 4 0 2 6 -4
14 -9 10 -8 16 3 26 18 14 37 5 30 -14 -3 -8 0 -17 7 -22 8 -4 10 -3 5 5 -4 6
-2 19 5 27 10 12 10 15 -2 12 -8 -2 -13 2 -12 9 2 8 -4 10 -15 6 -15 -6 -15
-5 -3 10 11 14 17 15 30 5 14 -12 15 -11 1 5 -8 11 -16 29 -17 40 -2 12 -8 24
-13 25 -6 2 -8 8 -5 12 3 5 13 6 23 3 13 -4 13 -2 -3 10 l-20 16 20 1 c17 0
17 2 5 10 -19 12 -33 13 -25 1 3 -5 1 -12 -5 -16 -6 -4 -8 -11 -5 -16 4 -5 1
-9 -5 -9 -6 0 -8 11 -6 25 3 14 1 25 -4 25 -4 0 -11 7 -14 16 -3 8 -2 12 4 9
10 -6 14 7 11 33 -1 6 2 12 8 12 13 0 8 27 -8 43 -11 10 -12 8 -6 -10 3 -13 2
-23 -3 -23 -4 0 -8 15 -8 34 0 19 4 32 7 30 4 -2 10 3 13 12 5 12 2 15 -11 10
-10 -4 -14 -4 -10 0 4 4 1 14 -6 23 -11 14 -10 14 6 2 14 -11 21 -11 29 -3 9
9 8 12 -4 12 -9 0 -19 4 -22 9 -3 5 5 8 17 7 13 0 24 -5 24 -11 0 -5 4 -19 9
-30 7 -18 6 -18 -9 -7 -14 12 -16 11 -12 -7 2 -12 0 -21 -6 -21 -5 0 -9 -5 -9
-11 0 -5 5 -7 12 -3 7 5 8 3 3 -6 -6 -9 -4 -11 4 -6 7 5 10 10 7 13 -3 3 1 11
7 18 8 9 18 10 32 3 19 -9 19 -8 1 6 -10 8 -15 20 -10 27 4 7 3 10 -3 6 -19
-12 -23 22 -5 40 13 13 13 15 2 11 -8 -3 -24 -9 -35 -14 l-20 -7 20 20 c11 11
24 18 28 16 5 -3 4 4 -2 16 -13 24 -23 28 -15 6 5 -11 2 -13 -10 -9 -9 3 -13
11 -10 16 4 6 -1 6 -13 0 -18 -10 -20 -8 -19 35 1 41 -2 48 -29 63 -16 9 -34
18 -40 18 -5 1 -10 8 -10 15 -1 6 -7 11 -15 9 -8 -2 -11 0 -7 4 11 11 38 14
32 4 -3 -5 -1 -11 5 -15 5 -3 10 -1 10 4 0 6 4 11 9 11 6 0 8 -8 6 -18 -2 -12
4 -18 18 -20 17 -1 19 1 7 8 -8 5 -10 10 -5 10 6 0 -3 12 -20 26 -20 17 -23
22 -8 15 29 -14 40 -14 25 1 -17 17 -15 31 3 25 8 -4 17 -2 20 2 3 5 15 7 28
5 15 -3 17 -2 7 3 -16 9 -25 33 -12 33 4 0 13 -5 19 -11 8 -8 13 -8 18 0 3 6
3 11 -2 10 -20 -3 -27 2 -13 12 12 8 11 9 -5 7 -23 -3 -46 -29 -38 -42 4 -5 0
-6 -7 -1 -9 6 -11 4 -5 -6 5 -8 4 -11 0 -7 -18 17 -14 58 7 69 16 8 19 8 13
-1 -6 -9 -2 -9 14 -1 24 13 28 23 6 15 -8 -4 -15 -1 -15 5 0 6 6 11 13 11 8 0
7 4 -3 10 -8 5 -11 10 -6 10 5 0 3 7 -4 15 -15 18 -3 20 20 3 9 -7 6 -3 -7 9
-26 25 -30 38 -8 29 25 -9 17 2 -11 17 l-27 14 22 22 c13 13 20 25 17 29 -4 3
-13 -3 -21 -14 -13 -17 -14 -17 -15 -2 0 9 5 20 10 23 6 3 10 12 9 18 0 9 -2
9 -6 0 -3 -9 -10 -10 -22 -3 -10 5 -20 7 -23 5 -2 -3 -5 14 -5 36 -1 42 -27
79 -51 71 -6 -2 -15 3 -18 12 -3 9 -10 14 -15 11 -4 -3 -31 6 -59 19 -54 26
-120 38 -155 29z m329 -205 c-3 -4 -11 -5 -19 -1 -21 7 -19 12 4 10 11 0 18
-5 15 -9z m1 -28 c8 -13 -5 -13 -25 0 -13 8 -13 10 2 10 9 0 20 -4 23 -10z
m-462 -20 c-3 -12 -8 -19 -11 -16 -5 6 5 36 12 36 2 0 2 -9 -1 -20z m30 -42
c-16 -17 -16 -20 0 -35 9 -10 17 -12 17 -6 0 6 -6 13 -12 16 -10 3 -8 10 5 23
16 17 18 17 15 2 -2 -9 2 -17 7 -17 6 0 9 7 7 16 -2 8 1 12 7 9 5 -4 12 -2 15
3 4 5 2 12 -3 15 -5 4 -13 1 -17 -5 -4 -8 -9 -7 -15 2 -12 19 -11 29 2 29 5 0
7 -5 4 -10 -4 -7 3 -9 18 -6 13 2 24 -1 25 -7 0 -7 3 -23 5 -37 14 -89 18
-152 9 -146 -6 3 -12 2 -14 -3 -1 -5 -21 -11 -44 -13 -32 -4 -43 -1 -53 13 -9
15 -8 19 1 20 11 0 11 2 0 6 -6 2 -9 10 -5 16 3 7 -3 4 -15 -6 -12 -12 -18
-25 -14 -35 4 -10 7 -12 10 -4 2 7 8 10 13 6 16 -9 10 -22 -8 -19 -10 2 -22 4
-27 4 -5 1 -7 4 -3 7 3 4 -1 13 -9 21 -13 14 -13 17 1 32 18 21 20 41 3 41 -6
0 -8 3 -5 7 4 3 -1 12 -11 20 -16 12 -16 13 2 6 13 -4 17 -3 12 5 -4 7 -2 12
4 12 6 0 10 -6 9 -12 -3 -26 1 -39 11 -33 5 3 7 12 4 20 -3 8 5 21 20 31 22
14 24 19 14 32 -11 13 -11 14 1 7 11 -6 13 -4 8 11 -7 19 -7 19 8 0 13 -18 13
-22 -2 -38z m451 -5 c-1 -12 2 -25 6 -28 5 -3 7 -15 5 -27 -5 -24 -15 -37 -15
-20 0 7 -5 12 -11 12 -5 0 -7 -4 -4 -10 3 -5 2 -10 -3 -10 -5 0 -9 14 -9 30 0
17 4 26 7 19 5 -7 10 -8 14 -1 4 6 -2 15 -11 21 -10 6 -12 11 -5 11 6 0 12 4
12 10 0 5 -8 7 -17 4 -13 -4 -14 -3 -5 3 23 17 39 11 36 -14z m-494 5 c0 -4
-4 -8 -9 -8 -6 0 -12 4 -15 8 -3 5 1 9 9 9 8 0 15 -4 15 -9z m-46 -98 c-6 -6
-10 -3 -10 10 0 13 4 16 10 10 7 -7 7 -13 0 -20z m506 -40 c0 -5 -5 -10 -11
-10 -5 0 -7 5 -4 10 3 6 8 10 11 10 2 0 4 -4 4 -10z m60 -267 c-12 -8 -24 -12
-27 -9 -4 3 -1 6 5 6 7 0 11 3 11 8 -3 17 2 21 16 15 13 -5 12 -8 -5 -20z
m-343 -8 c0 -8 -4 -15 -9 -15 -10 0 -11 14 -1 23 9 10 10 9 10 -8z m-76 -42
c13 -16 12 -17 -3 -4 -10 7 -18 15 -18 17 0 8 8 3 21 -13z m24 -213 c3 -6 -1
-7 -9 -4 -18 7 -21 14 -7 14 6 0 13 -4 16 -10z m20 -29 c3 -5 1 -13 -5 -16 -8
-5 -7 -12 2 -23 12 -15 11 -16 -4 -3 -15 11 -18 11 -19 0 0 -12 -1 -12 -6 0
-4 10 -7 11 -13 1 -10 -16 -30 -4 -29 18 0 14 2 14 8 -2 5 -14 10 -16 15 -8 4
7 12 10 17 7 5 -4 9 -1 9 4 0 6 -6 11 -12 11 -9 0 -8 4 2 10 19 12 27 12 35 1z
m404 -28 c12 -23 12 -35 -1 -50 -16 -20 -25 -15 -25 12 0 14 3 25 8 25 5 0 9
5 9 11 0 5 -4 7 -10 4 -5 -3 -10 -1 -10 4 0 17 18 13 29 -6z m-692 -39 c-3 -3
-12 -4 -19 -1 -8 3 -5 6 6 6 11 1 17 -2 13 -5z m608 -42 c-3 -3 -11 0 -18 7
-9 10 -8 11 6 5 10 -3 15 -9 12 -12z"/>
<path d="M2295 1889 c-4 -6 -5 -12 -2 -15 2 -3 7 2 10 11 7 17 1 20 -8 4z"/>
<path d="M2196 1871 c-8 -12 24 -45 34 -35 2 3 0 8 -6 12 -6 4 -13 14 -16 22
-3 11 -6 11 -12 1z"/>
<path d="M2185 1830 c-3 -5 -3 -10 1 -10 4 0 -3 -11 -15 -24 -12 -13 -19 -26
-14 -29 5 -3 18 10 30 28 13 19 18 37 13 40 -5 3 -11 1 -15 -5z"/>
<path d="M2675 1851 c-3 -5 -2 -12 3 -15 5 -3 9 1 9 9 0 17 -3 19 -12 6z"/>
<path d="M2729 1158 c-5 -18 -6 -38 -1 -34 7 8 12 36 6 36 -2 0 -4 -1 -5 -2z"/>
<path d="M3234 2108 c1 -30 21 -45 32 -25 4 7 3 9 -1 4 -5 -4 -14 5 -21 20
l-11 28 1 -27z"/>
<path d="M3255 2120 c3 -5 8 -10 11 -10 2 0 4 5 4 10 0 6 -5 10 -11 10 -5 0
-7 -4 -4 -10z"/>
<path d="M2653 2068 c-11 -19 -12 -37 -3 -43 5 -3 7 3 5 12 -1 10 2 24 8 31 5
6 7 12 4 12 -3 0 -9 -6 -14 -12z"/>
<path d="M3275 2070 c-4 -6 -15 -8 -26 -5 -11 4 -19 2 -19 -4 0 -6 8 -11 18
-11 10 0 24 -6 32 -12 12 -11 12 -10 2 3 -9 12 -9 18 0 27 7 7 9 12 6 12 -4 0
-10 -5 -13 -10z"/>
<path d="M1740 2060 c0 -6 7 -10 15 -10 8 0 15 2 15 4 0 2 -7 6 -15 10 -8 3
-15 1 -15 -4z"/>
<path d="M1727 2039 c7 -9 10 -19 6 -22 -3 -4 -1 -7 5 -7 7 0 11 -6 10 -12 -2
-7 3 -12 10 -10 18 3 15 -15 -4 -22 -15 -6 -15 -8 -1 -30 12 -17 13 -26 4 -35
-8 -8 -8 -11 1 -11 7 0 11 -4 10 -9 -2 -5 2 -8 7 -7 6 0 9 5 7 10 -2 5 5 6 14
2 14 -5 15 -4 4 9 -11 13 -15 13 -22 3 -7 -10 -9 -10 -5 2 2 8 12 14 21 14 26
-3 18 10 -16 25 -18 8 -27 16 -20 19 7 2 17 13 23 25 7 12 8 19 4 15 -11 -11
-37 20 -29 34 4 7 4 10 -1 6 -4 -4 -15 -2 -24 5 -14 10 -14 10 -4 -4z"/>
<path d="M2670 2040 c0 -5 5 -10 11 -10 5 0 7 5 4 10 -3 6 -8 10 -11 10 -2 0
-4 -4 -4 -10z"/>
<path d="M1776 2018 c3 -5 10 -6 15 -3 13 9 11 12 -6 12 -8 0 -12 -4 -9 -9z"/>
<path d="M3254 2021 c3 -5 -1 -14 -9 -21 -8 -7 -12 -17 -8 -23 3 -6 1 -7 -5
-3 -6 4 -8 14 -5 24 6 15 5 15 -10 3 -9 -7 -15 -17 -12 -21 6 -10 -14 -24 -37
-26 -41 -3 -41 -3 -29 -17 6 -8 8 -17 4 -21 -4 -4 0 -4 10 0 9 3 17 13 17 21
0 8 5 11 10 8 6 -4 8 -10 6 -14 -3 -4 5 -8 17 -8 15 -2 18 0 8 6 -8 6 -9 11
-3 15 6 3 13 2 17 -4 3 -5 11 -10 17 -10 5 0 0 9 -13 20 -22 19 -22 20 -4 18
11 -2 24 -7 28 -13 5 -6 7 -3 3 7 -3 10 -1 20 5 23 5 4 7 11 4 16 -4 5 2 9 12
9 15 0 16 2 3 10 -19 12 -33 13 -26 1z"/>
<path d="M3279 1988 c-5 -18 -6 -38 -1 -34 7 8 12 36 6 36 -2 0 -4 -1 -5 -2z"/>
<path d="M947 1946 c-4 -10 -1 -13 9 -9 7 3 14 9 14 14 0 14 -17 10 -23 -5z"/>
<path d="M2695 1951 c-3 -6 5 -15 17 -21 21 -10 21 -10 6 3 -10 8 -15 17 -11
20 3 4 4 7 0 7 -3 0 -8 -4 -12 -9z"/>
<path d="M3055 1930 c-3 -5 -3 -10 0 -10 4 0 -7 -16 -24 -35 -35 -40 -37 -48
-16 -68 8 -8 12 -16 10 -19 -2 -2 6 -5 18 -5 20 -2 20 -1 4 8 -15 9 -16 13 -5
27 7 9 8 13 2 9 -7 -4 -15 0 -18 9 -10 25 -8 25 22 8 l27 -16 -24 19 c-16 14
-20 22 -12 27 6 4 11 1 11 -6 0 -7 7 -2 16 10 9 13 22 21 30 18 8 -3 11 0 7
10 -3 8 -8 12 -11 10 -3 -3 -11 -1 -18 5 -8 7 -14 7 -19 -1z m19 -9 c3 -5 -2
-15 -12 -22 -15 -12 -16 -12 -5 2 7 9 10 19 6 22 -3 4 -4 7 0 7 3 0 8 -4 11
-9z"/>
<path d="M956 1901 c-4 -7 -5 -15 -2 -18 9 -9 19 4 14 18 -4 11 -6 11 -12 0z"/>
<path d="M3116 1893 c-6 -14 -5 -15 5 -6 7 7 10 15 7 18 -3 3 -9 -2 -12 -12z"/>
<path d="M3075 1879 c-11 -16 -1 -19 13 -3 7 8 8 14 3 14 -5 0 -13 -5 -16 -11z"/>
<path d="M3055 1820 c-3 -5 -1 -10 4 -10 6 0 11 5 11 10 0 6 -2 10 -4 10 -3 0
-8 -4 -11 -10z"/>
<path d="M1795 1780 c3 -5 8 -10 11 -10 2 0 4 5 4 10 0 6 -5 10 -11 10 -5 0
-7 -4 -4 -10z"/>
<path d="M2670 1780 c0 -5 5 -10 10 -10 6 0 10 5 10 10 0 6 -4 10 -10 10 -5 0
-10 -4 -10 -10z"/>
<path d="M1820 1766 c0 -2 8 -10 18 -17 15 -13 16 -12 3 4 -13 16 -21 21 -21
13z"/>
<path d="M1830 1719 c0 -5 5 -7 10 -4 6 3 10 8 10 11 0 2 -4 4 -10 4 -5 0 -10
-5 -10 -11z"/>
<path d="M3239 1723 c-10 -70 -3 -87 22 -56 8 9 9 14 3 10 -14 -8 -26 17 -18
38 4 8 3 15 0 15 -3 0 -6 -3 -7 -7z"/>
<path d="M2671 1704 c5 -6 6 -13 3 -16 -2 -3 2 -8 10 -11 10 -4 13 -1 9 10 -3
8 0 19 7 23 8 5 4 8 -13 7 -17 -1 -22 -6 -16 -13z"/>
<path d="M955 1701 c-3 -5 -1 -12 5 -16 5 -3 10 1 10 9 0 18 -6 21 -15 7z"/>
<path d="M2715 1699 c-4 -6 -5 -12 -2 -15 2 -3 7 2 10 11 7 17 1 20 -8 4z"/>
<path d="M3243 1642 c-7 -4 -10 -21 -8 -39 3 -24 -3 -37 -25 -58 -21 -20 -27
-33 -21 -44 5 -9 6 -21 4 -28 -2 -6 1 -14 6 -18 7 -4 8 0 4 11 -5 13 -3 15 8
9 11 -7 12 -6 2 6 -16 20 18 64 36 46 7 -7 11 -7 10 -2 -2 6 2 20 9 32 14 24
6 56 -13 50 -6 -3 -12 1 -12 8 0 8 9 11 25 9 22 -4 23 -3 9 11 -18 17 -18 17
-34 7z m17 -81 c-6 -12 -15 -19 -20 -16 -5 3 -15 -3 -22 -15 -7 -11 -17 -20
-22 -20 -6 0 4 15 22 33 18 18 32 39 32 47 0 10 3 11 11 3 8 -8 8 -17 -1 -32z"/>
<path d="M2693 1576 c-3 -6 -2 -8 2 -3 5 4 18 -1 29 -10 15 -14 18 -14 8 -2
-6 9 -10 18 -7 21 3 2 -2 5 -10 5 -9 0 -19 -5 -22 -11z"/>
<path d="M1846 1562 c-3 -5 1 -9 9 -9 8 0 12 4 9 9 -3 4 -7 8 -9 8 -2 0 -6 -4
-9 -8z"/>
<path d="M2690 1549 c0 -5 5 -7 10 -4 6 3 10 8 10 11 0 2 -4 4 -10 4 -5 0 -10
-5 -10 -11z"/>
<path d="M1015 1540 c-3 -5 -1 -10 4 -10 6 0 11 5 11 10 0 6 -2 10 -4 10 -3 0
-8 -4 -11 -10z"/>
<path d="M3233 1493 c0 -9 4 -10 14 -2 7 6 13 12 13 14 0 1 -6 2 -13 2 -8 0
-14 -6 -14 -14z"/>
<path d="M3145 1408 c8 -20 30 -24 41 -6 5 7 2 9 -8 5 -9 -3 -21 0 -27 6 -9 9
-11 8 -6 -5z"/>
<path d="M1861 1384 c0 -11 3 -14 6 -6 3 7 2 16 -1 19 -3 4 -6 -2 -5 -13z"/>
<path d="M1030 1380 c0 -5 5 -10 11 -10 5 0 7 5 4 10 -3 6 -8 10 -11 10 -2 0
-4 -4 -4 -10z"/>
<path d="M2766 1377 c3 -10 9 -15 12 -12 3 3 0 11 -7 18 -10 9 -11 8 -5 -6z"/>
<path d="M3176 1375 c-11 -8 -16 -15 -10 -15 5 0 2 -4 -6 -10 -12 -8 -12 -11
3 -28 9 -10 14 -22 10 -25 -10 -10 10 -8 27 3 13 8 12 10 -3 10 -10 0 -16 4
-12 9 3 5 1 13 -5 16 -8 5 -6 15 5 31 18 28 17 29 -9 9z"/>
<path d="M2305 1371 c-3 -5 -2 -12 3 -15 5 -3 9 1 9 9 0 17 -3 19 -12 6z"/>
<path d="M2742 1361 c-8 -4 -14 -12 -14 -16 0 -9 23 -25 37 -25 6 0 4 4 -4 9
-8 5 -11 16 -8 25 7 18 7 19 -11 7z"/>
<path d="M3190 1350 c0 -5 5 -10 11 -10 5 0 7 5 4 10 -3 6 -8 10 -11 10 -2 0
-4 -4 -4 -10z"/>
<path d="M1544 1310 c0 -13 4 -16 10 -10 7 7 7 13 0 20 -6 6 -10 3 -10 -10z"/>
<path d="M2727 1313 c-2 -4 -3 -16 -2 -25 2 -10 -1 -18 -6 -18 -6 0 -7 -5 -3
-11 4 -8 9 -7 14 2 7 10 12 10 27 -2 16 -13 17 -12 5 3 -14 18 -7 43 9 33 5
-4 9 -1 9 5 0 7 -6 10 -14 7 -7 -3 -18 -1 -24 5 -5 5 -12 6 -15 1z m18 -12 c3
-5 2 -12 -3 -15 -5 -3 -9 1 -9 9 0 17 3 19 12 6z"/>
<path d="M1456 1301 c-4 -5 3 -7 14 -4 23 6 26 13 6 13 -8 0 -17 -4 -20 -9z"/>
<path d="M2314 1286 c0 -13 4 -22 7 -20 3 2 11 -8 17 -21 7 -14 16 -25 22 -25
7 0 4 7 -5 16 -9 9 -14 23 -11 30 7 19 -3 44 -19 44 -7 0 -12 -10 -11 -24z
m24 -11 c-3 -3 -9 2 -12 12 -6 14 -5 15 5 6 7 -7 10 -15 7 -18z"/>
<path d="M1400 1262 c0 -5 7 -9 15 -9 8 0 12 4 9 9 -3 4 -9 8 -15 8 -5 0 -9
-4 -9 -8z"/>
<path d="M2366 1258 c3 -5 10 -6 15 -3 13 9 11 12 -6 12 -8 0 -12 -4 -9 -9z"/>
<path d="M1030 1250 c-9 -6 -10 -10 -3 -10 6 0 15 5 18 10 8 12 4 12 -15 0z"/>
<path d="M3215 1240 c3 -5 8 -10 11 -10 2 0 4 5 4 10 0 6 -5 10 -11 10 -5 0
-7 -4 -4 -10z"/>
<path d="M985 1230 c-8 -13 4 -32 16 -25 12 8 12 35 0 35 -6 0 -13 -4 -16 -10z"/>
<path d="M1006 1194 c-11 -7 -17 -17 -13 -20 4 -4 2 -13 -4 -20 -8 -10 -4 -20
13 -39 17 -18 25 -22 25 -11 0 8 -3 13 -7 11 -3 -2 -11 5 -18 16 -13 20 -3 26
14 9 7 -7 11 -6 11 4 0 8 -4 13 -8 11 -4 -3 -9 2 -13 10 -3 8 2 19 12 24 9 5
15 12 12 14 -3 3 -14 -1 -24 -9z"/>
<path d="M1413 1180 c-1 -11 2 -22 6 -24 4 -3 7 4 6 14 -2 27 -10 33 -12 10z"/>
<path d="M1840 1185 c-7 -8 -9 -15 -5 -15 4 0 2 -7 -5 -15 -7 -8 -17 -12 -23
-8 -6 4 -7 1 -3 -6 5 -7 14 -10 22 -7 8 3 14 1 14 -3 0 -5 -7 -11 -15 -15 -18
-6 -20 -26 -3 -26 6 0 8 3 5 7 -4 3 0 11 9 18 9 6 17 28 18 48 3 42 3 42 -14
22z"/>
<path d="M2355 1180 c-3 -5 -1 -10 4 -10 6 0 11 5 11 10 0 6 -2 10 -4 10 -3 0
-8 -4 -11 -10z"/>
<path d="M2180 1153 c0 -13 29 -38 35 -31 3 3 -4 13 -15 23 -11 10 -20 13 -20
8z"/>
<path d="M2776 1147 c3 -10 9 -15 12 -12 3 3 0 11 -7 18 -10 9 -11 8 -5 -6z"/>
<path d="M1411 1133 c7 -12 15 -20 18 -17 3 2 -3 12 -13 22 -17 16 -18 16 -5
-5z"/>
<path d="M2239 1145 c-4 -21 -6 -65 -3 -65 13 0 23 43 15 58 -6 9 -11 13 -12
7z"/>
<path d="M1696 1115 c-29 -27 -33 -37 -11 -29 8 4 12 10 9 15 -3 5 0 9 5 9 10
0 15 -14 12 -32 0 -5 3 -8 8 -8 6 0 9 9 8 20 -1 11 -5 20 -10 20 -5 0 -4 7 3
15 19 23 6 18 -24 -10z"/>
<path d="M1761 1111 c-8 -5 -16 -16 -17 -25 -2 -14 1 -14 27 -1 31 17 40 28
12 18 -11 -4 -14 -3 -9 5 9 14 6 15 -13 3z"/>
<path d="M1985 1110 c-3 -5 -1 -18 4 -28 6 -11 8 -21 6 -24 -3 -3 2 -5 10 -5
10 0 12 4 5 12 -6 7 -8 19 -4 28 6 17 -11 32 -21 17z"/>
<path d="M1960 1101 c0 -7 -5 -9 -12 -5 -7 5 -8 3 -3 -5 5 -9 10 -10 18 -2 6
6 8 14 4 18 -4 3 -7 1 -7 -6z"/>
<path d="M2170 1080 c0 -5 5 -10 11 -10 5 0 7 5 4 10 -3 6 -8 10 -11 10 -2 0
-4 -4 -4 -10z"/>
<path d="M2267 1079 c7 -7 15 -10 18 -7 3 3 -2 9 -12 12 -14 6 -15 5 -6 -5z"/>
<path d="M1170 1061 c0 -6 5 -11 11 -11 5 0 7 -5 4 -10 -4 -6 5 -5 19 2 14 6
26 15 26 20 0 11 -18 10 -25 -2 -5 -8 -11 -7 -21 1 -10 8 -14 8 -14 0z"/>
<path d="M1296 1046 c2 -11 8 -24 14 -30 8 -8 9 -6 5 7 -4 9 -3 17 3 17 6 0
13 -8 15 -17 4 -17 5 -17 6 0 0 10 -6 20 -15 24 -12 5 -13 7 -2 14 9 6 6 8 -9
7 -15 -2 -20 -7 -17 -22z"/>
<path d="M1950 1061 c0 -6 4 -13 10 -16 6 -3 7 1 4 9 -7 18 -14 21 -14 7z"/>
<path d="M1156 1037 c3 -10 9 -15 12 -12 3 3 0 11 -7 18 -10 9 -11 8 -5 -6z"/>
<path d="M2540 1031 c0 -7 -5 -9 -12 -5 -7 5 -8 3 -3 -5 5 -9 10 -10 18 -2 6
6 8 14 4 18 -4 3 -7 1 -7 -6z"/>
<path d="M2636 1022 c-3 -5 1 -9 9 -9 8 0 12 4 9 9 -3 4 -7 8 -9 8 -2 0 -6 -4
-9 -8z"/>
<path d="M1190 1011 c0 -7 -5 -9 -12 -5 -7 5 -8 3 -3 -5 5 -9 10 -10 18 -2 6
6 8 14 4 18 -4 3 -7 1 -7 -6z"/>
<path d="M526 991 c-13 -14 -14 -21 -5 -27 7 -4 10 -3 5 4 -3 6 -2 13 4 17 5
3 10 1 10 -4 0 -6 5 -11 11 -11 5 0 7 5 4 10 -9 15 4 12 21 -5 8 -8 22 -11 31
-8 12 5 14 3 8 -8 -7 -12 -6 -12 7 -1 10 8 19 9 22 3 4 -5 -3 -13 -15 -16 -11
-4 -18 -9 -16 -12 3 -2 15 1 27 7 18 10 24 9 31 -1 5 -8 9 -9 9 -4 0 12 -20
43 -20 31 0 -5 -7 -2 -16 5 -9 7 -26 14 -38 14 -11 0 -31 6 -42 12 -18 10 -24
9 -38 -6z"/>
<path d="M3393 988 c1 -7 -4 -12 -11 -10 -8 1 -11 -2 -7 -7 8 -14 35 -2 35 15
0 8 -4 14 -10 14 -5 0 -9 -6 -7 -12z"/>
<path d="M853 973 c4 -3 2 -12 -4 -20 -10 -11 -16 -11 -36 2 -17 12 -28 13
-37 6 -7 -6 -22 -9 -35 -6 -13 2 -19 0 -15 -7 4 -5 1 -14 -6 -18 -8 -5 -7 -9
5 -13 9 -4 13 -3 10 3 -5 9 1 12 21 9 4 0 11 5 16 13 6 9 7 5 3 -12 -6 -24 -5
-24 9 -6 9 10 13 23 9 29 -3 6 -1 7 6 3 6 -4 9 -11 6 -16 -3 -4 3 -14 12 -21
12 -10 14 -10 9 -1 -4 6 -4 12 1 13 4 0 16 2 26 4 14 3 17 -1 13 -13 -5 -15
-5 -15 7 0 8 10 18 14 23 10 5 -4 -2 5 -15 21 -14 15 -27 27 -29 27 -3 0 -2
-3 1 -7z m21 -21 c3 -5 -1 -9 -9 -9 -8 0 -12 4 -9 9 3 4 7 8 9 8 2 0 6 -4 9
-8z"/>
<path d="M3411 944 c0 -11 3 -14 6 -6 3 7 2 16 -1 19 -3 4 -6 -2 -5 -13z"/>
<path d="M2910 919 c0 -5 5 -7 10 -4 6 3 10 8 10 11 0 2 -4 4 -10 4 -5 0 -10
-5 -10 -11z"/>
<path d="M793 895 c0 -8 4 -12 9 -9 4 3 8 9 8 15 0 5 -4 9 -8 9 -5 0 -9 -7 -9
-15z"/>
<path d="M3270 861 c0 -6 4 -13 10 -16 6 -3 7 1 4 9 -7 18 -14 21 -14 7z"/>
<path d="M3340 866 c0 -2 8 -10 18 -17 15 -13 16 -12 3 4 -13 16 -21 21 -21
13z"/>
</g>
</svg>
